<?xml version="1.0" encoding="utf-8"?>
<!-- Generator: Adobe Illustrator 23.0.3, SVG Export Plug-In . SVG Version: 6.00 Build 0)  -->
<svg version="1.1" id="Layer_1" xmlns="http://www.w3.org/2000/svg" xmlns:xlink="http://www.w3.org/1999/xlink" x="0px" y="0px"
	 viewBox="0 0 226 258" style="enable-background:new 0 0 226 258;" xml:space="preserve">
<path d="M49,237.8l26.4-80.1c0.8-2.3,2.9-3.9,5.4-3.9h64.3c2.5,0,4.6,1.6,5.4,3.9l26.4,80.1c0.8,2.3,2.9,3.9,5.4,3.9h13.3
	c3.9,0,6.6-3.8,5.4-7.5l-30.9-93.5c-0.2-0.6-0.3-1.2-0.3-1.8V46.4c0-2.8,2-5.2,4.8-5.6l4.3-0.7c3.1-0.5,5.2-3.4,4.7-6.5l-2-12.5
	c-0.5-3.1-3.4-5.2-6.5-4.7L66.2,33.7v0l-5.3,0.8C58.1,35,56,37.4,56,40.2v98.7c0,0.6-0.1,1.2-0.3,1.8l-30.9,93.5
	c-1.2,3.7,1.5,7.5,5.4,7.5h13.3C46.1,241.6,48.2,240.1,49,237.8z M80,60.7c0-2.8,2-5.2,4.8-5.6l37.2-5.9l17.3-2.7
	c3.4-0.5,6.6,2.1,6.6,5.6v72.1c0,3.1-2.5,5.7-5.7,5.7H85.7c-3.1,0-5.7-2.5-5.7-5.7V60.7z"/>
</svg>
