<?xml version="1.0" encoding="utf-8"?>
<!-- Generator: Adobe Illustrator 23.0.3, SVG Export Plug-In . SVG Version: 6.00 Build 0)  -->
<svg version="1.1" id="Layer_1" xmlns="http://www.w3.org/2000/svg" xmlns:xlink="http://www.w3.org/1999/xlink" x="0px" y="0px"
	 viewBox="0 0 318 340" style="enable-background:new 0 0 318 340;" xml:space="preserve">
<path d="M248.2,266.6l-28.9-87.5V93.8l2.8-0.4c3.2-0.5,6.1-2.2,8-4.9c1.9-2.6,2.7-5.9,2.2-9.1l-1.9-11.7c-0.5-3.2-2.2-6.1-4.9-8
	c-2.6-1.9-5.9-2.7-9.1-2.2L109,74.6c-6,0.9-10.3,6-10.3,12.1v92.4l-28.9,87.5c-1.2,3.7-0.6,7.8,1.7,11c2.3,3.2,6,5.1,9.9,5.1h12.5
	c5.3,0,9.9-3.4,11.6-8.4l24.5-74.1h58.1l24.5,74.1c1.7,5,6.3,8.4,11.6,8.4h12.5c3.9,0,7.6-1.9,9.9-5.1
	C248.8,274.4,249.5,270.3,248.2,266.6z M183,99.6v64.2H135v-56.6L183,99.6z"/>
</svg>
