<?xml version="1.0" encoding="utf-8"?>
<!-- Generator: Adobe Illustrator 23.0.3, SVG Export Plug-In . SVG Version: 6.00 Build 0)  -->
<svg version="1.1" id="Layer_1" xmlns="http://www.w3.org/2000/svg" xmlns:xlink="http://www.w3.org/1999/xlink" x="0px" y="0px"
	 viewBox="0 0 240 227" style="enable-background:new 0 0 240 227;" xml:space="preserve">
<style type="text/css">
	.st0{fill:#231F20;}
</style>
<g>
	<path class="st0" d="M206.1,188.6H33.9c-6.9,0-12.4,5.6-12.4,12.4v11.7c0,6.9,5.6,12.4,12.4,12.4h172.2c6.9,0,12.4-5.6,12.4-12.4
		v-11.7C218.6,194.2,213,188.6,206.1,188.6z"/>
	<path class="st0" d="M238.9,86.9c-0.7-3.3-2.6-6-5.4-7.9l-105-68.5c-4.2-2.7-9.5-2.7-13.7,0L6.4,82.2c-2.8,1.8-4.7,4.6-5.3,7.9
		c-0.7,3.3,0,6.6,1.8,9.3l6.4,9.7l0,0c2.4,3.6,6.4,5.6,10.4,5.6c2.4,0,4.7-0.7,6.8-2.1l95.2-62.9l91.8,59.8
		c5.7,3.7,13.5,2.1,17.2-3.6l6.4-9.8C239,93.4,239.6,90.1,238.9,86.9z"/>
</g>
</svg>
