<?xml version="1.0" encoding="utf-8"?>
<!-- Generator: Adobe Illustrator 23.0.3, SVG Export Plug-In . SVG Version: 6.00 Build 0)  -->
<svg version="1.1" id="Layer_1" xmlns="http://www.w3.org/2000/svg" xmlns:xlink="http://www.w3.org/1999/xlink" x="0px" y="0px"
	 viewBox="0 0 266 258" style="enable-background:new 0 0 266 258;" xml:space="preserve">
<g>
	<g>
		<path d="M225.6,237.8H40.5c-3.2,0-5.7-2.6-5.7-5.7v-12.5c0-3.2,2.6-5.7,5.7-5.7h185.1c3.2,0,5.7,2.6,5.7,5.7v12.5
			C231.3,235.2,228.8,237.8,225.6,237.8z"/>
	</g>
	<g>
		<path d="M20.4,116.6l-6.9-10.5c-1.7-2.6-1-6.2,1.6-7.9l116.5-77c1.9-1.3,4.4-1.3,6.3,0l112.9,73.6c2.6,1.7,3.4,5.3,1.7,7.9
			l-6.9,10.5c-1.7,2.6-5.3,3.4-7.9,1.7l-99.7-65c-1.9-1.2-4.4-1.2-6.3,0L28.4,118.2C25.7,120,22.2,119.2,20.4,116.6z"/>
	</g>
</g>
</svg>
