<svg width="222" height="45" viewBox="0 0 222 45" fill="none" xmlns="http://www.w3.org/2000/svg">
<path d="M80.6 38.8C79.2 38.8 77.9 38.6 76.8 38.1C75.6 37.6 74.7 37 73.8 36.1C73 35.2 72.3 34.1 71.9 32.8C71.4 31.5 71.2 30 71.2 28.4C71.2 26.8 71.5 25.2 72 24C72.5 22.7 73.2 21.6 74.1 20.7C75 19.8 76 19.1 77.1 18.7C78.3 18.2 79.5 18 80.8 18C81.6 18 82.4 18.1 83 18.2C83.6 18.3 84.2 18.5 84.7 18.6C85.2 18.8 85.6 18.9 85.9 19.1C86.2 19.3 86.4 19.4 86.5 19.4L85.7 21.7C85.5 21.6 85.3 21.5 85 21.3C84.7 21.1 84.3 21 83.9 20.9C83.5 20.8 83 20.7 82.5 20.6C82 20.5 81.5 20.5 81 20.5C79.9 20.5 79 20.7 78.2 21C77.4 21.4 76.6 21.9 76 22.6C75.4 23.3 74.9 24.1 74.6 25.1C74.3 26.1 74.1 27.2 74.1 28.4C74.1 29.6 74.2 30.7 74.5 31.7C74.8 32.7 75.2 33.5 75.8 34.2C76.4 34.9 77.1 35.4 77.9 35.8C78.7 36.2 79.7 36.4 80.8 36.4C82.1 36.4 83.1 36.3 84 36C84.8 35.7 85.5 35.5 85.9 35.3L86.6 37.6C86.5 37.7 86.2 37.8 85.9 38C85.6 38.1 85.1 38.3 84.6 38.4C84.1 38.5 83.5 38.6 82.8 38.7C82.1 38.7 81.4 38.8 80.6 38.8Z" fill="#ED1C24"/>
<path d="M88.3999 30.9C88.3999 29.6 88.5999 28.4 88.9999 27.4C89.3999 26.4 89.8999 25.6 90.4999 24.9C91.0999 24.2 91.8999 23.8 92.6999 23.4C93.4999 23 94.3999 22.9 95.1999 22.9C97.1999 22.9 98.7999 23.5 99.7999 24.8C100.9 26.1 101.4 28 101.4 30.5C101.4 30.6 101.4 30.8 101.4 30.9C101.4 31.1 101.4 31.3 101.4 31.4H91.1999C91.2999 33 91.7999 34.1 92.5999 34.9C93.3999 35.7 94.5999 36.1 96.2999 36.1C97.1999 36.1 97.9999 36 98.6999 35.9C99.3999 35.8 99.7999 35.6 100.2 35.4L100.6 37.6C100.3 37.8 99.6999 38 98.8999 38.1C98.0999 38.3 97.1999 38.4 96.0999 38.4C94.7999 38.4 93.6999 38.2 92.6999 37.8C91.7999 37.4 90.9999 36.9 90.3999 36.2C89.7999 35.5 89.2999 34.7 88.9999 33.7C88.5999 33.1 88.3999 32 88.3999 30.9ZM98.6999 29.4C98.6999 28.2 98.3999 27.2 97.7999 26.4C97.1999 25.6 96.2999 25.2 95.1999 25.2C94.5999 25.2 93.9999 25.3 93.5999 25.6C93.0999 25.8 92.6999 26.2 92.3999 26.5C92.0999 26.8 91.7999 27.3 91.5999 27.8C91.3999 28.3 91.2999 28.8 91.1999 29.3H98.6999V29.4Z" fill="#ED1C24"/>
<path d="M108.8 36.4C109.9 36.4 110.7 36.3 111.2 36C111.7 35.7 112 35.3 112 34.6C112 33.9 111.7 33.4 111.2 33C110.7 32.6 109.8 32.2 108.6 31.7C108 31.5 107.5 31.2 106.9 31C106.4 30.8 105.9 30.5 105.5 30.2C105.1 29.9 104.8 29.5 104.6 29C104.4 28.5 104.3 28 104.3 27.3C104.3 26 104.8 24.9 105.8 24.1C106.8 23.3 108.1 22.9 109.8 22.9C110.2 22.9 110.6 22.9 111.1 23C111.5 23 111.9 23.1 112.3 23.2C112.7 23.3 113 23.3 113.3 23.4C113.6 23.5 113.8 23.5 113.9 23.6L113.4 25.9C113.1 25.7 112.7 25.6 112 25.4C111.4 25.2 110.6 25.2 109.8 25.2C109.1 25.2 108.4 25.3 107.8 25.6C107.2 25.9 107 26.4 107 27C107 27.3 107.1 27.6 107.2 27.9C107.3 28.2 107.5 28.4 107.8 28.6C108.1 28.8 108.4 29 108.8 29.2C109.2 29.4 109.6 29.6 110.2 29.7C110.9 30 111.5 30.2 112.1 30.5C112.7 30.8 113.1 31.1 113.5 31.4C113.9 31.7 114.2 32.2 114.4 32.7C114.6 33.2 114.7 33.8 114.7 34.5C114.7 35.9 114.2 36.9 113.2 37.6C112.2 38.3 110.7 38.7 108.8 38.7C107.5 38.7 106.4 38.6 105.7 38.4C105 38.2 104.4 38 104.2 37.9L104.7 35.6C105 35.7 105.5 35.9 106.2 36.1C106.8 36.3 107.7 36.4 108.8 36.4Z" fill="#ED1C24"/>
<path d="M120.7 23.4H126.4V25.6H120.7V32.5C120.7 33.2 120.8 33.9 120.9 34.4C121 34.9 121.2 35.3 121.4 35.6C121.6 35.9 121.9 36.1 122.3 36.2C122.6 36.3 123 36.4 123.5 36.4C124.3 36.4 125 36.3 125.4 36.1C125.9 35.9 126.2 35.8 126.4 35.7L126.9 37.9C126.6 38 126.2 38.2 125.5 38.4C124.8 38.6 124.1 38.7 123.2 38.7C122.2 38.7 121.3 38.6 120.7 38.3C120.1 38 119.5 37.7 119.1 37.1C118.7 36.6 118.4 35.9 118.3 35.2C118.1 34.4 118.1 33.6 118.1 32.6V19.2L120.8 18.7V23.4H120.7Z" fill="#ED1C24"/>
<path d="M134.6 23C135.7 23 136.6 23.1 137.3 23.4C138 23.7 138.6 24.1 139.1 24.6C139.6 25.1 139.9 25.7 140.1 26.4C140.3 27.1 140.4 27.9 140.4 28.7V38.1C140.2 38.1 139.8 38.2 139.4 38.3C139 38.4 138.5 38.4 138 38.5C137.5 38.6 136.9 38.6 136.3 38.7C135.7 38.7 135.1 38.8 134.5 38.8C133.7 38.8 132.9 38.7 132.2 38.5C131.5 38.3 130.9 38.1 130.4 37.7C129.9 37.3 129.5 36.8 129.2 36.2C128.9 35.6 128.8 34.8 128.8 34C128.8 33.2 129 32.5 129.3 31.9C129.6 31.3 130.1 30.8 130.7 30.5C131.3 30.1 131.9 29.9 132.7 29.7C133.5 29.5 134.3 29.4 135.1 29.4C135.4 29.4 135.6 29.4 135.9 29.4C136.2 29.4 136.5 29.5 136.7 29.5C136.9 29.5 137.2 29.6 137.4 29.6C137.6 29.6 137.7 29.7 137.8 29.7V29C137.8 28.6 137.8 28.1 137.7 27.7C137.6 27.3 137.4 26.9 137.2 26.5C137 26.2 136.6 25.9 136.2 25.7C135.8 25.5 135.2 25.4 134.5 25.4C133.6 25.4 132.8 25.5 132.2 25.6C131.5 25.7 131 25.9 130.7 26L130.4 23.8C130.7 23.6 131.3 23.5 132.1 23.4C132.8 23.1 133.6 23 134.6 23ZM134.8 36.4C135.4 36.4 136 36.4 136.5 36.4C137 36.4 137.4 36.3 137.7 36.2V31.7C137.5 31.6 137.2 31.5 136.8 31.5C136.4 31.4 135.8 31.4 135.2 31.4C134.8 31.4 134.4 31.4 133.9 31.5C133.4 31.6 133 31.7 132.7 31.9C132.3 32.1 132 32.3 131.8 32.6C131.6 32.9 131.4 33.3 131.4 33.9C131.4 34.9 131.7 35.5 132.3 35.9C132.9 36.3 133.8 36.4 134.8 36.4Z" fill="#ED1C24"/>
<path d="M150.2 34.9C150.8 34.9 151.4 34.8 151.8 34.7C152.2 34.6 152.5 34.5 152.8 34.3C153 34.1 153.2 33.9 153.3 33.7C153.4 33.5 153.4 33.2 153.4 32.9C153.4 32.2 153.1 31.7 152.5 31.3C151.9 30.9 150.8 30.4 149.3 29.9C148.6 29.7 148 29.4 147.3 29.1C146.6 28.8 146.1 28.4 145.5 28C145 27.5 144.6 27 144.2 26.4C143.9 25.8 143.7 25 143.7 24.1C143.7 23.2 143.9 22.3 144.2 21.6C144.5 20.9 145 20.2 145.7 19.7C146.3 19.2 147.1 18.8 148 18.5C148.9 18.2 149.9 18.1 151.1 18.1C152.4 18.1 153.6 18.2 154.6 18.5C155.6 18.8 156.4 19.1 157 19.5L155.7 23C155.1 22.7 154.5 22.5 153.8 22.2C153.1 22 152.3 21.9 151.3 21.9C150.2 21.9 149.5 22 149 22.3C148.5 22.6 148.3 23.1 148.3 23.7C148.3 24.1 148.4 24.4 148.6 24.6C148.8 24.9 149 25.1 149.3 25.3C149.6 25.5 150 25.7 150.4 25.8C150.8 26 151.3 26.1 151.8 26.3C152.8 26.7 153.7 27.1 154.5 27.4C155.3 27.8 155.9 28.2 156.4 28.7C156.9 29.2 157.3 29.8 157.5 30.5C157.7 31.2 157.9 32 157.9 32.9C157.9 34.8 157.2 36.2 155.9 37.2C154.6 38.2 152.6 38.7 150 38.7C149.1 38.7 148.3 38.6 147.6 38.5C146.9 38.4 146.3 38.3 145.7 38.1C145.1 37.9 144.7 37.8 144.3 37.6C143.9 37.4 143.6 37.3 143.3 37.1L144.6 33.5C145.2 33.8 145.9 34.1 146.8 34.4C147.9 34.8 148.9 34.9 150.2 34.9Z" fill="#ED1C24"/>
<path d="M174.9 38.4C173.6 36.1 172.2 33.9 170.7 31.6C169.2 29.4 167.6 27.3 165.9 25.3V38.4H161.5V18.4H165.2C165.8 19 166.5 19.8 167.3 20.7C168.1 21.6 168.8 22.6 169.6 23.7C170.4 24.7 171.2 25.8 172 27C172.8 28.2 173.5 29.2 174.2 30.2V18.4H178.7V38.3H174.9V38.4Z" fill="#ED1C24"/>
<path d="M189.3 18.2C192.3 18.2 194.6 18.7 196.2 19.8C197.8 20.8 198.6 22.6 198.6 24.9C198.6 27.3 197.8 29 196.2 30.1C194.6 31.2 192.3 31.7 189.3 31.7H187.9V38.4H183.4V18.7C184.4 18.5 185.4 18.4 186.5 18.3C187.5 18.2 188.4 18.2 189.3 18.2ZM189.6 22C189.3 22 189 22 188.6 22C188.3 22 188 22 187.8 22.1V27.9H189.2C190.8 27.9 191.9 27.7 192.7 27.3C193.5 26.9 193.9 26.1 193.9 24.9C193.9 24.3 193.8 23.9 193.6 23.5C193.4 23.1 193.1 22.8 192.7 22.6C192.3 22.4 191.9 22.2 191.3 22.1C190.8 22 190.2 22 189.6 22Z" fill="#ED1C24"/>
<path d="M202.1 37.6C202.1 37.8 202 38.1 201.9 38.2C201.7 38.4 201.5 38.5 201.2 38.5C200.9 38.5 200.7 38.4 200.5 38.2C200.3 38 200.3 37.8 200.3 37.6C200.3 37.4 200.4 37.1 200.5 37C200.7 36.8 200.9 36.7 201.2 36.7C201.5 36.7 201.7 36.8 201.9 37C202.1 37.1 202.1 37.4 202.1 37.6Z" fill="#ED1C24"/>
<path d="M205.7 37.4C206.2 37.4 206.6 37.3 206.9 37.2C207.2 37.1 207.3 36.8 207.3 36.5C207.3 36.2 207.2 35.9 206.9 35.8C206.7 35.6 206.2 35.4 205.7 35.2C205.4 35.1 205.2 35 204.9 34.9C204.6 34.8 204.4 34.6 204.2 34.5C204 34.3 203.9 34.2 203.8 33.9C203.7 33.7 203.6 33.4 203.6 33.1C203.6 32.5 203.8 32 204.3 31.6C204.8 31.2 205.4 31 206.2 31C206.4 31 206.6 31 206.8 31C207 31 207.2 31.1 207.4 31.1C207.6 31.1 207.7 31.2 207.9 31.2C208 31.2 208.1 31.3 208.2 31.3L208 32.4C207.9 32.3 207.6 32.3 207.3 32.2C207 32.1 206.7 32.1 206.2 32.1C205.8 32.1 205.5 32.2 205.3 32.3C205.1 32.4 204.9 32.7 204.9 33C204.9 33.2 204.9 33.3 205 33.4C205.1 33.5 205.2 33.6 205.3 33.7C205.4 33.8 205.6 33.9 205.8 34C206 34.1 206.2 34.2 206.5 34.3C206.8 34.4 207.1 34.6 207.4 34.7C207.7 34.8 207.9 35 208.1 35.1C208.3 35.2 208.4 35.5 208.5 35.7C208.6 35.9 208.7 36.2 208.7 36.6C208.7 37.3 208.5 37.8 208 38.1C207.5 38.4 206.8 38.6 205.9 38.6C205.3 38.6 204.8 38.5 204.4 38.4C204 38.3 203.8 38.2 203.7 38.2L203.9 37.1C204 37.2 204.3 37.2 204.6 37.3C204.9 37.4 205.2 37.4 205.7 37.4Z" fill="#ED1C24"/>
<path d="M212.8 34.4C213.1 34.6 213.4 34.9 213.7 35.2C214 35.5 214.3 35.9 214.6 36.2C214.9 36.6 215.2 36.9 215.4 37.3C215.6 37.7 215.9 38 216.1 38.3H214.6C214.4 38 214.2 37.6 213.9 37.3C213.6 37 213.4 36.6 213.1 36.3C212.8 36 212.5 35.7 212.3 35.5C212.1 35.3 211.7 35 211.5 34.9V38.4H210.2V27.9L211.5 27.7V34.2C211.7 34 212 33.7 212.2 33.5C212.5 33.2 212.7 33 213 32.7C213.3 32.4 213.5 32.2 213.7 31.9C213.9 31.6 214.1 31.4 214.3 31.2H215.8C215.6 31.4 215.4 31.7 215.1 32C214.8 32.3 214.6 32.6 214.3 32.8C214 33.1 213.8 33.4 213.5 33.6C213.3 33.9 213 34.2 212.8 34.4Z" fill="#ED1C24"/>
<path d="M32.8 38L43.9001 18.9L54.9001 38H32.8Z" fill="white"/>
<path d="M43.9 19.9L54 37.5H33.7L43.9 19.9ZM43.9 17.9L32 38.5H55.8L43.9 17.9Z" fill="#ED1C24"/>
<path d="M32 7.70001L49.7999 38.5H14.2L32 7.70001Z" fill="#ED1C24"/>
<path d="M9.09998 38L20.1 18.9L31.1 38H9.09998Z" fill="white"/>
<path d="M20.1 19.9L30.2 37.5H9.99995L20.1 19.9ZM20.1 17.9L8.19995 38.5H32L20.1 17.9Z" fill="#ED1C24"/>
</svg>
