<svg width="208" height="32" viewBox="0 0 208 32" fill="none" xmlns="http://www.w3.org/2000/svg">
<g clip-path="url(#clip0)">
<path d="M72.4 31.1C71 31.1 69.7 30.9 68.6 30.4C67.4 29.9 66.5 29.3 65.6 28.4C64.8 27.5 64.1 26.4 63.7 25.1C63.2 23.8 63 22.3 63 20.7C63 19.1 63.3 17.5 63.8 16.3C64.3 15 65 13.9 65.9 13C66.8 12.1 67.8 11.4 68.9 11C70.1 10.5 71.3 10.3 72.6 10.3C73.4 10.3 74.2 10.4 74.8 10.5C75.4 10.6 76 10.8 76.5 10.9C77 11.1 77.4 11.2 77.7 11.4C78 11.6 78.2 11.7 78.3 11.7L77.5 14C77.3 13.9 77.1 13.8 76.8 13.6C76.5 13.4 76.1 13.3 75.7 13.2C75.3 13.1 74.8 13 74.3 12.9C73.8 12.8 73.3 12.8 72.8 12.8C71.7 12.8 70.8 13 70 13.3C69.2 13.7 68.4 14.2 67.8 14.9C67.2 15.6 66.7 16.4 66.4 17.4C66.1 18.4 65.9 19.5 65.9 20.7C65.9 21.9 66 23 66.3 24C66.6 25 67 25.8 67.6 26.5C68.2 27.2001 68.9 27.7 69.7 28.1C70.5 28.5 71.5 28.7001 72.6 28.7001C73.9 28.7001 74.9 28.6 75.8 28.3C76.6 28 77.3 27.8 77.7 27.6L78.4 29.9C78.3 30 78 30.1 77.7 30.3C77.4 30.4 76.9 30.6 76.4 30.7001C75.9 30.8001 75.3 30.9 74.6 31C73.9 31.1 73.2 31.1 72.4 31.1Z" fill="#58595B"/>
<path d="M80.2 23.2001C80.2 21.9001 80.4 20.7001 80.8 19.7001C81.2 18.7001 81.7 17.9001 82.3 17.2001C82.9 16.5001 83.7 16.1001 84.5 15.7001C85.3 15.4001 86.2 15.2001 87 15.2001C89 15.2001 90.6 15.8001 91.6 17.1001C92.7 18.4001 93.2 20.3001 93.2 22.8001C93.2 22.9001 93.2 23.1001 93.2 23.2001C93.2 23.4001 93.2 23.6001 93.2 23.7001H83C83.1 25.3001 83.6 26.4001 84.4 27.2001C85.2 28.0001 86.4 28.4001 88.1 28.4001C89 28.4001 89.8 28.3001 90.5 28.2001C91.2 28.1001 91.6 27.9001 92 27.7001L92.4 29.9001C92.1 30.1001 91.5 30.3001 90.7 30.4001C89.9 30.6001 89 30.7001 87.9 30.7001C86.6 30.7001 85.5 30.5001 84.5 30.1001C83.6 29.7001 82.8 29.2001 82.2 28.5001C81.6 27.8001 81.1 27.0001 80.8 26.0001C80.3 25.4001 80.2 24.4001 80.2 23.2001ZM90.5 21.8001C90.5 20.6001 90.2 19.6001 89.6 18.8001C89 18.0001 88.1 17.6001 87 17.6001C86.4 17.6001 85.8 17.7001 85.4 18.0001C84.9 18.2001 84.5 18.6001 84.2 18.9001C83.9 19.2001 83.6 19.7001 83.4 20.2001C83.2 20.7001 83.1 21.2001 83 21.7001H90.5V21.8001Z" fill="#58595B"/>
<path d="M100.6 28.8C101.7 28.8 102.5 28.7 103 28.4C103.5 28.1 103.8 27.7 103.8 27C103.8 26.3 103.5 25.8 103 25.4C102.5 25 101.6 24.6 100.4 24.1C99.8 23.9 99.3 23.6 98.7 23.4C98.2 23.2 97.7 22.9 97.3 22.6C96.9 22.3 96.6 21.9 96.4 21.4C96.2 20.9 96.1 20.4 96.1 19.7C96.1 18.4 96.6 17.3 97.6 16.5C98.6 15.7 99.9 15.3 101.6 15.3C102 15.3 102.4 15.3 102.9 15.4C103.3 15.4 103.7 15.5 104.1 15.6C104.5 15.7 104.8 15.7 105.1 15.8C105.4 15.9 105.6 15.9 105.7 16L105.2 18.3C104.9 18.1 104.5 18 103.8 17.8C103.2 17.6 102.4 17.6 101.6 17.6C100.9 17.6 100.2 17.7 99.6 18C99 18.3 98.8 18.8 98.8 19.4C98.8 19.7 98.9 20 99 20.3C99.1 20.6 99.3 20.8 99.6 21C99.9 21.2 100.2 21.4 100.6 21.6C101 21.8 101.4 22 102 22.1C102.7 22.4 103.3 22.6 103.9 22.9C104.5 23.2 104.9 23.5 105.3 23.8C105.7 24.1 106 24.6 106.2 25.1C106.4 25.6 106.5 26.2 106.5 26.9C106.5 28.3 106 29.3 105 30C104 30.7 102.5 31.1 100.6 31.1C99.3 31.1 98.2 31 97.5 30.8C96.8 30.6 96.2 30.4 96 30.3L96.5 28C96.8 28.1 97.3 28.3 98 28.5C98.6 28.6 99.5 28.8 100.6 28.8Z" fill="#58595B"/>
<path d="M112.5 15.7001H118.2V18.0001H112.5V24.9001C112.5 25.6001 112.6 26.3001 112.7 26.8001C112.8 27.3001 113 27.7001 113.2 28.0001C113.4 28.3001 113.7 28.5001 114.1 28.6001C114.4 28.7001 114.8 28.8001 115.3 28.8001C116.1 28.8001 116.8 28.7001 117.2 28.5001C117.7 28.3001 118 28.2001 118.2 28.1001L118.7 30.3001C118.4 30.4001 118 30.6001 117.3 30.8001C116.6 31.0001 115.9 31.1001 115 31.1001C114 31.1001 113.1 31.0001 112.5 30.7001C111.9 30.4001 111.3 30.1001 110.9 29.5001C110.5 29.0001 110.2 28.3001 110.1 27.6001C109.9 26.8001 109.9 26.0001 109.9 25.0001V11.6001L112.6 11.1001V15.7001H112.5Z" fill="#58595B"/>
<path d="M126.4 15.4C127.5 15.4 128.4 15.5 129.1 15.8C129.8 16.1 130.4 16.5 130.9 17C131.4 17.5 131.7 18.1 131.9 18.8C132.1 19.5 132.2 20.3 132.2 21.1V30.5C132 30.5 131.6 30.6 131.2 30.7C130.8 30.8 130.3 30.8 129.8 30.9C129.3 31 128.7 31 128.1 31.1C127.5 31.1 126.9 31.2 126.3 31.2C125.5 31.2 124.7 31.1 124 30.9C123.3 30.7 122.7 30.5 122.2 30.1C121.7 29.7 121.3 29.2 121 28.6C120.7 28 120.6 27.2 120.6 26.4C120.6 25.6 120.8 24.9 121.1 24.3C121.4 23.7 121.9 23.2 122.5 22.9C123.1 22.5 123.7 22.3 124.5 22.1C125.3 21.9 126.1 21.8 126.9 21.8C127.2 21.8 127.4 21.8 127.7 21.8C128 21.8 128.3 21.9 128.5 21.9C128.7 21.9 129 22 129.2 22C129.4 22 129.5 22.1 129.6 22.1V21.4C129.6 21 129.6 20.5 129.5 20.1C129.4 19.7 129.2 19.3 129 18.9C128.8 18.6 128.4 18.3 128 18.1C127.6 17.9 127 17.8 126.3 17.8C125.4 17.8 124.6 17.9 124 18C123.3 18.1 122.8 18.3 122.5 18.4L122 16C122.3 15.8 122.9 15.7 123.7 15.6C124.5 15.4 125.4 15.4 126.4 15.4ZM126.6 28.8C127.2 28.8 127.8 28.8 128.3 28.8C128.8 28.8 129.2 28.7 129.5 28.6V24.1C129.3 24 129 23.9 128.6 23.9C128.2 23.8 127.6 23.8 127 23.8C126.6 23.8 126.2 23.8 125.7 23.9C125.2 24 124.8 24.1 124.5 24.3C124.1 24.5 123.8 24.7 123.6 25C123.4 25.3 123.2 25.7 123.2 26.3C123.2 27.3 123.5 27.9 124.1 28.3C124.7 28.7 125.5 28.8 126.6 28.8Z" fill="#58595B"/>
<path d="M142 27.3C142.6 27.3 143.2 27.2 143.6 27.1C144 27 144.3 26.9 144.6 26.7C144.8 26.5 145 26.3 145.1 26.1C145.2 25.9 145.2 25.6 145.2 25.3C145.2 24.6 144.9 24.1 144.3 23.7C143.7 23.3 142.6 22.8 141.1 22.3C140.4 22.1 139.8 21.8 139.1 21.5C138.4 21.2 137.9 20.8 137.3 20.4C136.8 19.9 136.4 19.4 136 18.8C135.7 18.2 135.5 17.4 135.5 16.5C135.5 15.6 135.7 14.7 136 14C136.3 13.3 136.8 12.6 137.5 12.1C138.1 11.6 138.9 11.2 139.8 10.9C140.7 10.6 141.7 10.5 142.9 10.5C144.2 10.5 145.4 10.6 146.4 10.9C147.4 11.2 148.2 11.5 148.8 11.9L147.5 15.4C146.9 15.1 146.3 14.9 145.6 14.6C144.9 14.4 144.1 14.3 143.1 14.3C142 14.3 141.3 14.4 140.8 14.7C140.3 15 140.1 15.5 140.1 16.1C140.1 16.5 140.2 16.8 140.4 17C140.6 17.3 140.8 17.5 141.1 17.7C141.4 17.9 141.8 18.1 142.2 18.2C142.6 18.4 143.1 18.5 143.6 18.7C144.6 19.1 145.5 19.5 146.3 19.8C147.1 20.2 147.7 20.6 148.2 21.1C148.7 21.6 149.1 22.2 149.3 22.9C149.5 23.6 149.7 24.4 149.7 25.3C149.7 27.2 149 28.6 147.7 29.6C146.4 30.6 144.4 31.1 141.8 31.1C140.9 31.1 140.1 31 139.4 30.9C138.7 30.8 138.1 30.7 137.5 30.5C136.9 30.3 136.5 30.2 136.1 30C135.7 29.8 135.4 29.7 135.1 29.5L136.4 25.9C137 26.2 137.7 26.5 138.6 26.8C139.7 27.1 140.7 27.3 142 27.3Z" fill="#58595B"/>
<path d="M166.7 30.7001C165.4 28.4001 164 26.2001 162.5 23.9001C161 21.7001 159.4 19.6001 157.7 17.6001V30.7001H153.3V10.7001H157C157.6 11.3001 158.3 12.1001 159.1 13.0001C159.9 13.9001 160.6 14.9001 161.4 16.0001C162.2 17.0001 163 18.1001 163.8 19.3001C164.6 20.5001 165.3 21.5001 166 22.5001V10.7001H170.5V30.6001H166.7V30.7001Z" fill="#58595B"/>
<path d="M181.1 10.5C184.1 10.5 186.4 11 188 12.1C189.6 13.1 190.4 14.9 190.4 17.2C190.4 19.6 189.6 21.3 188 22.4C186.4 23.5 184.1 24 181.1 24H179.7V30.7H175.2V11C176.2 10.8 177.2 10.7 178.3 10.6C179.3 10.6 180.2 10.5 181.1 10.5ZM181.3 14.3C181 14.3 180.7 14.3 180.3 14.3C180 14.3 179.7 14.3 179.5 14.4V20.2H180.9C182.5 20.2 183.6 20 184.4 19.6C185.2 19.2 185.6 18.4 185.6 17.2C185.6 16.6 185.5 16.2 185.3 15.8C185.1 15.4 184.8 15.1 184.4 14.9C184 14.7 183.6 14.5 183 14.4C182.6 14.4 182 14.3 181.3 14.3Z" fill="#58595B"/>
<path d="M193.9 29.9C193.9 30.1 193.8 30.4 193.7 30.5C193.5 30.7 193.3 30.8 193 30.8C192.7 30.8 192.5 30.7 192.3 30.5C192.1 30.3 192.1 30.1 192.1 29.9C192.1 29.7 192.2 29.4 192.3 29.3C192.5 29.1 192.7 29 193 29C193.3 29 193.5 29.1 193.7 29.3C193.8 29.5 193.9 29.7 193.9 29.9Z" fill="#58595B"/>
<path d="M197.5 29.8C198 29.8 198.4 29.7 198.7 29.6C199 29.5 199.1 29.2 199.1 28.9C199.1 28.6 199 28.3 198.7 28.2C198.5 28 198 27.8 197.5 27.6C197.2 27.5 197 27.4 196.7 27.3C196.4 27.2 196.2 27 196 26.9C195.8 26.7 195.7 26.6 195.6 26.3C195.5 26.1 195.4 25.8 195.4 25.5C195.4 24.9 195.6 24.4 196.1 24C196.6 23.6 197.2 23.4 198 23.4C198.2 23.4 198.4 23.4 198.6 23.4C198.8 23.4 199 23.5 199.2 23.5C199.4 23.5 199.5 23.6 199.7 23.6C199.8 23.6 199.9 23.7 200 23.7L199.8 24.8C199.7 24.7 199.4 24.7 199.1 24.6C198.8 24.5 198.5 24.5 198 24.5C197.6 24.5 197.3 24.6 197.1 24.7C196.9 24.8 196.7 25.1 196.7 25.4C196.7 25.6 196.7 25.7 196.8 25.8C196.9 25.9 197 26 197.1 26.1C197.2 26.2 197.4 26.3 197.6 26.4C197.8 26.5 198 26.6 198.3 26.7C198.6 26.8 198.9 27 199.2 27.1C199.5 27.2 199.7 27.4 199.9 27.5C200.1 27.6 200.2 27.9 200.3 28.1C200.4 28.3 200.5 28.6 200.5 29C200.5 29.7 200.3 30.2 199.8 30.5C199.3 30.8 198.6 31 197.7 31C197.1 31 196.6 30.9 196.2 30.8C195.8 30.7 195.6 30.6 195.5 30.6L195.7 29.5C195.8 29.6 196.1 29.6 196.4 29.7C196.7 29.8 196.9 29.8 197.5 29.8Z" fill="#58595B"/>
<path d="M204.6 26.7C204.9 26.9 205.2 27.2 205.5 27.5C205.8 27.8 206.1 28.2 206.4 28.5C206.7 28.9 207 29.2 207.2 29.6C207.4 30 207.7 30.3 207.9 30.6H206.4C206.2 30.3 206 29.9 205.7 29.6C205.4 29.3 205.2 28.9 204.9 28.6C204.6 28.3 204.3 28 204.1 27.8C203.9 27.6 203.5 27.3 203.3 27.2V30.7H202V20.2L203.3 20V26.5C203.5 26.3 203.8 26 204 25.8C204.3 25.5 204.5 25.3 204.8 25C205.1 24.7 205.3 24.5 205.5 24.2C205.7 23.9 205.9 23.7 206.1 23.5H207.6C207.4 23.7 207.2 24 206.9 24.3C206.6 24.6 206.4 24.9 206.1 25.1C205.8 25.4 205.6 25.7 205.3 25.9C205.1 26.2 204.8 26.5 204.6 26.7Z" fill="#58595B"/>
<path d="M35.6 12.3L45.7001 29.9H25.5L35.6 12.3ZM35.6 10.3L23.8 30.9H47.6L35.6 10.3Z" fill="#58595B"/>
<path d="M23.7999 0L14.5999 15.9L22.8999 30.4H6.1999L5.8999 30.9H41.5999L23.7999 0Z" fill="#58595B"/>
<path d="M11.9 12.3L22 29.9H1.7L11.9 12.3ZM11.9 10.3L0 30.9H23.8L11.9 10.3Z" fill="#58595B"/>
</g>
<defs>
<clipPath id="clip0">
<rect width="207.9" height="31.1" fill="white"/>
</clipPath>
</defs>
</svg>
